<?xml version="1.0" encoding="UTF-8" standalone="no"?>
<!DOCTYPE svg PUBLIC "-//W3C//DTD SVG 1.1//EN"
 "http://www.w3.org/Graphics/SVG/1.1/DTD/svg11.dtd">
<!-- Generated by graphviz version 2.50.0 (0)
 -->
<!-- Pages: 1 -->
<svg width="89pt" height="228pt"
 viewBox="0.00 0.00 89.00 227.60" xmlns="http://www.w3.org/2000/svg" xmlns:xlink="http://www.w3.org/1999/xlink">
<g id="graph0" class="graph" transform="scale(1 1) rotate(0) translate(4 223.6)">
<polygon fill="white" stroke="transparent" points="-4,4 -4,-223.6 85,-223.6 85,4 -4,4"/>
<!-- Z -->
<g id="node1" class="node">
<title>Z</title>
<ellipse fill="none" stroke="black" cx="27" cy="-162" rx="27" ry="18"/>
<text text-anchor="middle" x="27" y="-158.3" font-family="Times,serif" font-size="14.00">Z</text>
</g>
<!-- X -->
<g id="node2" class="node">
<title>X</title>
<ellipse fill="none" stroke="black" cx="27" cy="-90" rx="27" ry="18"/>
<text text-anchor="middle" x="27" y="-86.3" font-family="Times,serif" font-size="14.00">X</text>
</g>
<!-- Z&#45;&gt;X -->
<g id="edge1" class="edge">
<title>Z&#45;&gt;X</title>
<path fill="none" stroke="black" d="M27,-143.7C27,-135.98 27,-126.71 27,-118.11"/>
<polygon fill="black" stroke="black" points="30.5,-118.1 27,-108.1 23.5,-118.1 30.5,-118.1"/>
</g>
<!-- Y -->
<g id="node3" class="node">
<title>Y</title>
<ellipse fill="none" stroke="black" cx="54" cy="-18" rx="27" ry="18"/>
<text text-anchor="middle" x="54" y="-14.3" font-family="Times,serif" font-size="14.00">Y</text>
</g>
<!-- X&#45;&gt;Y -->
<g id="edge2" class="edge">
<title>X&#45;&gt;Y</title>
<path fill="none" stroke="black" d="M33.4,-72.41C36.51,-64.34 40.33,-54.43 43.83,-45.35"/>
<polygon fill="black" stroke="black" points="47.13,-46.55 47.46,-35.96 40.6,-44.03 47.13,-46.55"/>
</g>
<!-- Unobserved_0 -->
<g id="node4" class="node">
<title>Unobserved_0</title>
<ellipse fill="black" stroke="black" cx="54" cy="-217.8" rx="1.8" ry="1.8"/>
</g>
<!-- Unobserved_0&#45;&gt;Z -->
<g id="edge3" class="edge">
<title>Unobserved_0&#45;&gt;Z</title>
<path fill="none" stroke="black" stroke-dasharray="5,2" d="M53.53,-215.87C51.82,-212.45 45.69,-200.23 39.75,-188.4"/>
<polygon fill="black" stroke="black" points="42.73,-186.54 35.12,-179.17 36.47,-189.68 42.73,-186.54"/>
</g>
<!-- Unobserved_0&#45;&gt;Y -->
<g id="edge4" class="edge">
<title>Unobserved_0&#45;&gt;Y</title>
<path fill="none" stroke="black" stroke-dasharray="5,2" d="M54.3,-215.9C55.67,-211.83 61.24,-194.63 63,-180 68.74,-132.34 67.03,-119.83 63,-72 62.28,-63.5 60.93,-54.31 59.49,-46.01"/>
<polygon fill="black" stroke="black" points="62.91,-45.29 57.65,-36.09 56.03,-46.56 62.91,-45.29"/>
</g>
</g>
</svg>
