<?xml version="1.0" encoding="UTF-8" standalone="no"?>
<!DOCTYPE svg PUBLIC "-//W3C//DTD SVG 1.1//EN"
 "http://www.w3.org/Graphics/SVG/1.1/DTD/svg11.dtd">
<!-- Generated by graphviz version 2.50.0 (0)
 -->
<!-- Pages: 1 -->
<svg width="147pt" height="156pt"
 viewBox="0.00 0.00 146.58 155.60" xmlns="http://www.w3.org/2000/svg" xmlns:xlink="http://www.w3.org/1999/xlink">
<g id="graph0" class="graph" transform="scale(1 1) rotate(0) translate(4 151.6)">
<polygon fill="white" stroke="transparent" points="-4,4 -4,-151.6 142.58,-151.6 142.58,4 -4,4"/>
<!-- Z -->
<g id="node1" class="node">
<title>Z</title>
<ellipse fill="none" stroke="black" cx="39.58" cy="-90" rx="27" ry="18"/>
<text text-anchor="middle" x="39.58" y="-86.3" font-family="Times,serif" font-size="14.00">Z</text>
</g>
<!-- X -->
<g id="node2" class="node">
<title>X</title>
<ellipse fill="none" stroke="black" cx="111.58" cy="-90" rx="27" ry="18"/>
<text text-anchor="middle" x="111.58" y="-86.3" font-family="Times,serif" font-size="14.00">X</text>
</g>
<!-- Y -->
<g id="node3" class="node">
<title>Y</title>
<ellipse fill="none" stroke="black" cx="47.58" cy="-18" rx="27" ry="18"/>
<text text-anchor="middle" x="47.58" y="-14.3" font-family="Times,serif" font-size="14.00">Y</text>
</g>
<!-- X&#45;&gt;Y -->
<g id="edge1" class="edge">
<title>X&#45;&gt;Y</title>
<path fill="none" stroke="black" d="M98,-74.15C89.26,-64.6 77.74,-51.99 67.92,-41.25"/>
<polygon fill="black" stroke="black" points="70.46,-38.84 61.13,-33.82 65.29,-43.57 70.46,-38.84"/>
</g>
<!-- Unobserved_0 -->
<g id="node4" class="node">
<title>Unobserved_0</title>
<ellipse fill="black" stroke="black" cx="20.58" cy="-145.8" rx="1.8" ry="1.8"/>
</g>
<!-- Unobserved_0&#45;&gt;Z -->
<g id="edge2" class="edge">
<title>Unobserved_0&#45;&gt;Z</title>
<path fill="none" stroke="black" stroke-dasharray="5,2" d="M20.9,-143.87C22.08,-140.53 26.23,-128.78 30.32,-117.21"/>
<polygon fill="black" stroke="black" points="33.64,-118.31 33.67,-107.71 27.04,-115.98 33.64,-118.31"/>
</g>
<!-- Unobserved_0&#45;&gt;Y -->
<g id="edge3" class="edge">
<title>Unobserved_0&#45;&gt;Y</title>
<path fill="none" stroke="black" stroke-dasharray="5,2" d="M20,-143.94C17.44,-140.02 6.96,-123.4 3.58,-108 0.14,-92.37 -1.86,-87.05 3.58,-72 7.85,-60.17 16.04,-49.11 24.2,-40.19"/>
<polygon fill="black" stroke="black" points="26.8,-42.54 31.28,-32.93 21.79,-37.65 26.8,-42.54"/>
</g>
<!-- Unobserved_1 -->
<g id="node5" class="node">
<title>Unobserved_1</title>
<ellipse fill="black" stroke="black" cx="58.58" cy="-145.8" rx="1.8" ry="1.8"/>
</g>
<!-- Unobserved_1&#45;&gt;Z -->
<g id="edge5" class="edge">
<title>Unobserved_1&#45;&gt;Z</title>
<path fill="none" stroke="black" stroke-dasharray="5,2" d="M58.25,-143.87C57.07,-140.53 52.92,-128.78 48.83,-117.21"/>
<polygon fill="black" stroke="black" points="52.11,-115.98 45.48,-107.71 45.51,-118.31 52.11,-115.98"/>
</g>
<!-- Unobserved_1&#45;&gt;X -->
<g id="edge4" class="edge">
<title>Unobserved_1&#45;&gt;X</title>
<path fill="none" stroke="black" stroke-dasharray="5,2" d="M59.5,-143.87C63.2,-140.11 77.4,-125.69 90.04,-112.86"/>
<polygon fill="black" stroke="black" points="92.69,-115.16 97.21,-105.58 87.7,-110.25 92.69,-115.16"/>
</g>
</g>
</svg>
